<?xml version="1.0" encoding="UTF-8"?>
<svg version="1.1" xmlns="http://www.w3.org/2000/svg" width="32" height="32">
<path d="M0 0 C0.74886475 0.00523682 1.49772949 0.01047363 2.26928711 0.01586914 C3.07817383 0.0190918 3.88706055 0.02231445 4.72045898 0.02563477 C5.5705957 0.03401367 6.42073242 0.04239258 7.29663086 0.05102539 C8.15063477 0.05553711 9.00463867 0.06004883 9.88452148 0.06469727 C12.00108749 0.07652166 14.11761771 0.0944577 16.23413086 0.11352539 C16.91475586 1.56758789 16.91475586 1.56758789 17.60913086 3.05102539 C18.89199307 6.18432121 18.89199307 6.18432121 21.23413086 7.11352539 C22.95431698 11.2228589 23.6964985 14.67479607 23.23413086 19.11352539 C21.92163086 22.11352539 21.92163086 22.11352539 20.23413086 25.11352539 C19.80100586 26.20665039 19.36788086 27.29977539 18.92163086 28.42602539 C17.23413086 31.11352539 17.23413086 31.11352539 14.79663086 31.98852539 C13.03319336 32.05040039 13.03319336 32.05040039 11.23413086 32.11352539 C10.25959961 32.16250977 9.28506836 32.21149414 8.28100586 32.26196289 C-0.22907118 32.52918753 -0.22907118 32.52918753 -2.53149414 30.74633789 C-6.69094877 25.24427449 -9.33711758 20.1113188 -8.76586914 13.11352539 C-7.89086914 9.80102539 -7.89086914 9.80102539 -6.76586914 7.11352539 C-6.10586914 6.78352539 -5.44586914 6.45352539 -4.76586914 6.11352539 C-4.0637502 4.46148083 -3.39615501 2.7942877 -2.76586914 1.11352539 C-1.76586914 0.11352539 -1.76586914 0.11352539 0 0 Z " fill="#F2B430" transform="translate(8.765869140625,-0.113525390625)"/>
<path d="M0 0 C3.24271506 0.5590888 4.93057424 1.4132178 7 4 C7 4.66 7 5.32 7 6 C9.97 6.495 9.97 6.495 13 7 C13.33333333 8.66666667 13.66666667 10.33333333 14 12 C14.2475 12.86625 14.495 13.7325 14.75 14.625 C15 17 15 17 14.0625 18.75 C10.93510046 20.64539366 7.62795126 20.97074233 4 21 C3.01 20.67 2.02 20.34 1 20 C0.34 21.32 -0.32 22.64 -1 24 C-1.66 24 -2.32 24 -3 24 C-3 24.66 -3 25.32 -3 26 C-5.3125 25.875 -5.3125 25.875 -8 25 C-9.99060657 21.80081088 -11.2885206 18.6996929 -12 15 C-11.34 14.67 -10.68 14.34 -10 14 C-9.67 13.01 -9.34 12.02 -9 11 C-8.01 11.33 -7.02 11.66 -6 12 C-5.3125 14.0625 -5.3125 14.0625 -5 16 C-3.68 16 -2.36 16 -1 16 C-0.67 16.66 -0.34 17.32 0 18 C3.81594124 18.38749213 3.81594124 18.38749213 5.75 16.75 C7.38749213 14.81594124 7.38749213 14.81594124 7 11 C5.865625 10.731875 4.73125 10.46375 3.5625 10.1875 C1.7990625 9.5996875 1.7990625 9.5996875 0 9 C-0.33 8.01 -0.66 7.02 -1 6 C-1.66 6 -2.32 6 -3 6 C-2.67 4.68 -2.34 3.36 -2 2 C-1.34 2 -0.68 2 0 2 C0 1.34 0 0.68 0 0 Z " fill="#CF992A" transform="translate(14,6)"/>
<path d="M0 0 C0.433125 0.66 0.86625 1.32 1.3125 2 C2.1478125 2.99 2.1478125 2.99 3 4 C3.99 4 4.98 4 6 4 C6.66 2.68 7.32 1.36 8 0 C8 0.99 8 1.98 8 3 C8.66 3.33 9.32 3.66 10 4 C9.67 4.66 9.34 5.32 9 6 C8.34 6 7.68 6 7 6 C6.67 7.32 6.34 8.64 6 10 C6.66 10 7.32 10 8 10 C8.99 11.485 8.99 11.485 10 13 C13.55672179 14.2188121 13.55672179 14.2188121 17 15 C16.67 16.65 16.34 18.3 16 20 C15.34 20 14.68 20 14 20 C13.67 20.99 13.34 21.98 13 23 C9 23 9 23 7 22 C7.33 21.34 7.66 20.68 8 20 C6.68 20 5.36 20 4 20 C4 19.34 4 18.68 4 18 C3.34 17.67 2.68 17.34 2 17 C1.34 16.67 0.68 16.34 0 16 C-0.33 17.65 -0.66 19.3 -1 21 C-3.7353475 18.77753016 -4.9106768 17.68481121 -5.375 14.125 C-4.97877517 10.82312645 -4.28390228 8.06709989 -3 5 C-2.34 4.67 -1.68 4.34 -1 4 C-0.34786708 1.97536745 -0.34786708 1.97536745 0 0 Z " fill="#F1B22E" transform="translate(5,2)"/>
<path d="M0 0 C0.99 0.33 1.98 0.66 3 1 C3.6875 3.0625 3.6875 3.0625 4 5 C5.32 5 6.64 5 8 5 C8.33 5.66 8.66 6.32 9 7 C10.32 7 11.64 7 13 7 C13.66 6.34 14.32 5.68 15 5 C15.66 6.32 16.32 7.64 17 9 C13.98968256 9.93423645 13.13349732 10.04449911 10 9 C9.34 10.32 8.68 11.64 8 13 C7.34 13 6.68 13 6 13 C6 13.66 6 14.32 6 15 C3.6875 14.875 3.6875 14.875 1 14 C-0.99060657 10.80081088 -2.2885206 7.6996929 -3 4 C-2.34 3.67 -1.68 3.34 -1 3 C-0.67 2.01 -0.34 1.02 0 0 Z " fill="#F1B32F" transform="translate(5,17)"/>
<path d="M0 0 C1.37478516 0.01740234 1.37478516 0.01740234 2.77734375 0.03515625 C3.69644531 0.04417969 4.61554687 0.05320312 5.5625 0.0625 C6.27277344 0.07410156 6.98304687 0.08570313 7.71484375 0.09765625 C8.04484375 1.74765625 8.37484375 3.39765625 8.71484375 5.09765625 C7.72484375 5.42765625 6.73484375 5.75765625 5.71484375 6.09765625 C5.38484375 7.08765625 5.05484375 8.07765625 4.71484375 9.09765625 C0.71484375 9.09765625 0.71484375 9.09765625 -1.28515625 8.09765625 C-0.95515625 7.43765625 -0.62515625 6.77765625 -0.28515625 6.09765625 C-1.60515625 6.09765625 -2.92515625 6.09765625 -4.28515625 6.09765625 C-3.21536826 0.1374089 -3.21536826 0.1374089 0 0 Z " fill="#DDB751" transform="translate(13.28515625,15.90234375)"/>
<path d="M0 0 C0.433125 0.66 0.86625 1.32 1.3125 2 C2.1478125 2.99 2.1478125 2.99 3 4 C3.99 4 4.98 4 6 4 C6.66 2.68 7.32 1.36 8 0 C8 0.99 8 1.98 8 3 C8.66 3.33 9.32 3.66 10 4 C9.67 4.66 9.34 5.32 9 6 C8.34 6 7.68 6 7 6 C6.67 7.32 6.34 8.64 6 10 C6.66 10 7.32 10 8 10 C8.66 11.32 9.32 12.64 10 14 C9.38125 14.103125 8.7625 14.20625 8.125 14.3125 C5.63473516 14.87525373 5.63473516 14.87525373 4 18 C3.34 17.67 2.68 17.34 2 17 C3 9.57142857 3 9.57142857 4 6 C2.68 5.34 1.36 4.68 0 4 C0 2.68 0 1.36 0 0 Z " fill="#E8AD31" transform="translate(5,2)"/>
<path d="M0 0 C1.32 0.66 2.64 1.32 4 2 C4 6 4 6 2.8125 7.8125 C1 9 1 9 -1.6875 8.6875 C-2.450625 8.460625 -3.21375 8.23375 -4 8 C-4.33 7.01 -4.66 6.02 -5 5 C-3.33333333 3.33333333 -1.66666667 1.66666667 0 0 Z " fill="#A67E2E" transform="translate(25,17)"/>
<path d="M0 0 C3.24271506 0.5590888 4.93057424 1.4132178 7 4 C7 4.66 7 5.32 7 6 C4.26094655 7.36952673 2.02912668 7.12621361 -1 7 C-1.66 6.67 -2.32 6.34 -3 6 C-2.67 4.68 -2.34 3.36 -2 2 C-1.34 2 -0.68 2 0 2 C0 1.34 0 0.68 0 0 Z " fill="#AD9049" transform="translate(14,6)"/>
<path d="M0 0 C0.99 0.33 1.98 0.66 3 1 C3.33333333 2.33333333 3.66666667 3.66666667 4 5 C4.99 5.33 5.98 5.66 7 6 C6.67 6.66 6.34 7.32 6 8 C4.35 8 2.7 8 1 8 C-0.42944945 5.64561267 -1.08661261 4.51967567 -0.625 1.75 C-0.41875 1.1725 -0.2125 0.595 0 0 Z " fill="#765725" transform="translate(5,17)"/>
<path d="M0 0 C0.66 0.66 1.32 1.32 2 2 C3.32 2 4.64 2 6 2 C6.66 1.34 7.32 0.68 8 0 C8.66 1.32 9.32 2.64 10 4 C6.98968256 4.93423645 6.13349732 5.04449911 3 4 C2.01 4.33 1.02 4.66 0 5 C-2.6875 4.5625 -2.6875 4.5625 -5 4 C-4.0409375 3.8453125 -4.0409375 3.8453125 -3.0625 3.6875 C-2.381875 3.460625 -1.70125 3.23375 -1 3 C-0.67 2.01 -0.34 1.02 0 0 Z " fill="#D79F2A" transform="translate(12,22)"/>
<path d="M0 0 C1.32 0.66 2.64 1.32 4 2 C4 2.66 4 3.32 4 4 C3.34 4 2.68 4 2 4 C2 4.66 2 5.32 2 6 C1.01 6 0.02 6 -1 6 C-1.33 5.01 -1.66 4.02 -2 3 C-1.34 2.01 -0.68 1.02 0 0 Z " fill="#735C31" transform="translate(22,19)"/>
<path d="M0 0 C0.66 0 1.32 0 2 0 C2.625 1.875 2.625 1.875 3 4 C2.34 4.66 1.68 5.32 1 6 C0.01 6 -0.98 6 -2 6 C-1.125 1.125 -1.125 1.125 0 0 Z " fill="#A3B69B" transform="translate(11,16)"/>
<path d="M0 0 C0.99 0.33 1.98 0.66 3 1 C2.67 3.31 2.34 5.62 2 8 C1.01 7.34 0.02 6.68 -1 6 C-1.25 3.4375 -1.25 3.4375 -1 1 C-0.67 0.67 -0.34 0.34 0 0 Z " fill="#917131" transform="translate(5,17)"/>
</svg>
